<svg id="Capa_1" data-name="Capa 1" xmlns="http://www.w3.org/2000/svg" viewBox="0 0 417 417"><defs><style>.cls-1{fill:#fff;}.cls-2{fill:none;}</style></defs><rect class="cls-1" width="417" height="417" rx="208.5"/><path class="cls-2" d="M272,119.05h0a29.31,29.31,0,0,0-19.06-36.38l-19.68-6.33a29.3,29.3,0,0,0-36.7,18.44h0Z"/><path d="M171.22,130.42l100.53,32.34A7.78,7.78,0,1,0,276.52,148L176,115.6a7.78,7.78,0,1,0-4.77,14.82Z"/><path d="M275.26,179.83A4.74,4.74,0,0,1,273.4,177v-.06a4.83,4.83,0,0,0-3.29-3.6L163.23,138.93h0a6.87,6.87,0,0,1-1.64,2.08,4.75,4.75,0,0,1-3.17,1.23,24.32,24.32,0,0,0-16.49,42l.33.35c4.31,5,3.44,8.84,3.44,8.84h0L125.9,255a4.88,4.88,0,0,0-.09,2.68l12.6,51.24,11.07,45a4.9,4.9,0,0,0,7.89,2.61l36.06-29.9,41-34a4.88,4.88,0,0,0,1.54-2.27l19.63-61a4.36,4.36,0,0,1,.66-1.33c.85-1.17,2.95-3.28,7.46-4.36a3.73,3.73,0,0,1,.46-.09,24.32,24.32,0,0,0,11.09-43.73Zm-35,3.74A13,13,0,1,1,224,191.94,12.95,12.95,0,0,1,240.29,183.57Zm-55.64-17.9a13,13,0,1,1-16.3,8.37A13,13,0,0,1,184.65,165.67Zm4.13,145.89A25.36,25.36,0,0,0,152,300.26l-9-30.62,20.14-2.23L178.26,281l20.13-2.22,15.07,13.55Zm35-30.37-8-8.1-5.25-5.31L204,261.19l-6.54,1.11-10,1.7-4.21.71-3-3-6.83-6.91-4.94-5-8.76,1.49L152,252.58l-10.41,1.77-.37-.12,18.29-56.84a137.29,137.29,0,0,0,14.87,8.36q6.14,3,13,5.7,5.65,2.22,11.7,4.18c4.14,1.33,8.24,2.5,12.26,3.51,4.76,1.19,9.41,2.17,13.89,2.92a139.18,139.18,0,0,0,17,1.83Z"/><path d="M179.43,105.63l100.11,32.21a7.93,7.93,0,0,0,9.59-3.92,7.79,7.79,0,0,0-1.32-8.75h0c.25-.67.49-1.36.71-2a41.86,41.86,0,0,0-27-52.67L233.38,61.4a41.87,41.87,0,0,0-52.67,27h0c-.22.69-.43,1.38-.61,2.08h0a7.77,7.77,0,0,0-6.18,6.34A7.93,7.93,0,0,0,179.43,105.63Zm53.8-29.29,19.68,6.33A29.31,29.31,0,0,1,272,119.05h0L196.53,94.78h0A29.3,29.3,0,0,1,233.23,76.34Z"/><path d="M211.36,219.14,197.48,262.3l6.54-1.11,6.52,6.59,14.71-45.72C220.77,221.31,216.12,220.33,211.36,219.14Z"/><path d="M174.41,205.75l-14.64,45.51,8.76-1.49,4.94,5,13.93-43.31Q180.56,208.77,174.41,205.75Z"/><path d="M127.37,168.31l22.84,7.34a4.9,4.9,0,0,0,6.17-3.16l1.34-4.17a4.9,4.9,0,0,0-3.17-6.17l-22.84-7.35a4.9,4.9,0,0,1-3.17-6.17l2-6.24a4.9,4.9,0,0,0-3.17-6.17l-4.16-1.34a4.9,4.9,0,0,0-6.17,3.17l-11.37,35.32a4.91,4.91,0,0,0,3.17,6.17l4.16,1.34a4.91,4.91,0,0,0,6.18-3.17l2-6.24A4.91,4.91,0,0,1,127.37,168.31Z"/><path d="M285.29,219.11l-22.84-7.35a4.9,4.9,0,0,1-3.17-6.17l1.34-4.16a4.9,4.9,0,0,1,6.17-3.17l22.84,7.35a4.91,4.91,0,0,0,6.18-3.17l2-6.24A4.91,4.91,0,0,1,304,193l4.16,1.33a4.91,4.91,0,0,1,3.17,6.18L300,235.87a4.89,4.89,0,0,1-6.17,3.16l-4.16-1.33a4.91,4.91,0,0,1-3.17-6.18l2-6.23A4.91,4.91,0,0,0,285.29,219.11Z"/></svg>