<svg width="200" height="54" viewBox="0 0 200 54" fill="#ef4444" xmlns="http://www.w3.org/2000/svg">
<g clip-path="url(#clip0_604_1247)">
<path d="M200 42.4332C196.778 42.6014 193.93 42.7824 191.079 42.8586C190.664 42.8586 190.128 42.4777 189.811 42.1285C186.202 38.0845 182.555 34.0723 179.066 29.9204C177.734 28.3332 176.396 27.7174 174.268 27.8476C164.792 28.4317 155.304 28.7999 145.819 29.2506C144.947 29.2919 144.071 29.2506 143.18 29.2506C143.483 30.9403 144.367 32.4706 145.679 33.5762C146.991 34.6818 148.648 35.293 150.363 35.3039C155.187 35.3356 160.013 35.0214 164.834 34.7674C165.408 34.7357 166.083 34.2659 166.48 33.8152C167.701 32.3899 168.814 30.8663 170.076 29.2379C171.661 31.2282 173.247 33.1263 174.703 35.1071C174.912 35.3928 174.757 36.1895 174.493 36.5387C172.908 38.6241 171.275 40.6652 169.597 42.6776C169.252 43.0421 168.787 43.2678 168.287 43.3125C162.839 43.5855 157.391 43.9981 151.939 43.9949C141.75 43.9949 133.834 35.9578 133.619 25.7177C133.52 20.9563 134.64 16.6235 138.04 13.1191C143.608 7.3801 153.934 7.24044 159.674 12.8017C160.806 13.8968 161.894 15.0522 162.975 16.1918C163.086 16.3609 163.168 16.5477 163.216 16.7441C160.413 16.9727 157.673 17.3409 154.933 17.379C153.408 17.379 151.882 16.6235 150.35 16.5886C147.147 16.506 144.553 17.8297 142.882 20.696C142.747 20.9175 142.632 21.1501 142.536 21.3912C142.498 21.6325 142.487 21.8775 142.505 22.1213L171.154 20.8992C167.494 16.7727 164.019 12.8684 160.223 8.60218C163.711 8.50061 166.727 8.36729 169.736 8.38316C170.234 8.38316 170.821 8.96722 171.217 9.41479C178.886 18.1503 186.54 26.8985 194.181 35.6594C196.068 37.8242 197.926 40.0208 200 42.4332Z" fill="#ef4444"/>
<path d="M94.3392 45.7916C91.3741 45.89 88.7102 46.0169 86.0463 46.0169C85.7007 46.0169 85.2123 45.417 85.0506 44.9948C84.8159 44.3854 84.819 43.6839 84.6985 42.8649C81.264 45.3535 77.671 46.9914 73.5198 46.9914C68.1698 46.9914 63.5842 45.2297 60.3716 40.7826C55.5354 34.0977 58.7543 25.8129 66.9108 24.3655C70.8591 23.664 74.9469 23.7306 78.9617 23.4576C80.2588 23.3719 81.559 23.3402 82.8338 23.2862C83.2524 20.8452 80.9533 18.6391 77.8613 18.0519C75.1498 17.5408 72.4384 17.4551 69.8918 18.9312C69.4066 19.2105 68.6804 19.1153 68.0683 19.1216C66.1244 19.147 64.1804 19.2105 62.2459 19.1216C61.4753 19.0772 60.3621 18.8359 60.0704 18.3154C59.7786 17.7948 60.1972 16.7028 60.6254 16.0934C63.4446 12.0272 67.5483 10.1576 72.3052 9.69413C77.7915 9.13864 83.0146 9.87189 87.5273 13.4556C90.3815 15.7284 92.2843 18.6645 92.6014 22.2514C93.3181 29.987 93.7589 37.7512 94.3392 45.7916ZM83.5854 29.8378C80.2968 29.968 76.9004 30.0442 73.5166 30.2727C72.3148 30.3636 71.1362 30.6521 70.0282 31.1266C67.6688 32.1296 67.0409 34.7992 68.9595 36.4847C70.1392 37.5227 71.839 38.1639 73.3993 38.5194C75.7524 39.0558 77.9405 38.0464 80.059 37.0656C84.3687 35.0658 84.3656 35.0595 83.8201 30.3425C83.7597 30.1666 83.6811 29.9974 83.5854 29.8378Z" fill="#ef4444"/>
<path d="M132.423 44.7885L123.588 44.9948C123.252 41.1159 122.912 37.3544 122.605 33.593C122.358 30.606 122.17 27.6127 121.914 24.6257C121.343 18.0297 116.709 15.3252 110.633 18.0582C107.824 19.3279 106.254 21.5309 106.415 24.6448C106.733 30.8377 107.202 37.0243 107.602 43.2109C107.643 43.8839 107.63 44.5631 107.646 45.4329L98.5697 45.6773C97.723 33.9326 96.8763 22.2228 96.0168 10.3194C98.5697 10.2084 101.002 10.0687 103.438 10.0369C103.755 10.0369 104.246 10.5385 104.37 10.9067C104.544 11.405 104.443 11.9986 104.462 12.6462C110.583 8.3546 116.982 7.92925 123.461 11.1733C127.267 13.0779 129.883 16.3632 130.4 20.6262C131.351 28.3967 131.878 36.2212 132.569 44.0235C132.554 44.2837 132.504 44.5409 132.423 44.7885Z" fill="#ef4444"/>
<path d="M43.4465 31.0853C42.1431 31.0663 40.9095 31.0123 39.6727 31.0313C37.678 31.0599 35.6864 31.1742 33.6949 31.1647C33.2889 31.1647 32.55 30.806 32.531 30.5679C32.3407 28.073 32.2678 25.5685 32.16 22.9815L52.5545 22.0609C52.6879 22.3933 52.7847 22.7392 52.8431 23.0926C52.9953 26.4477 53.2141 29.8061 53.2395 33.1676C53.2839 38.913 50.084 42.8268 45.6094 45.8201C39.5998 49.8419 32.9052 50.645 25.9474 49.3118C17.7021 47.7247 11.1566 43.4966 6.61846 36.3355C6.30133 35.8213 6.05714 35.2467 5.69244 34.523C6.3489 34.4151 6.78971 34.304 7.23369 34.2722C8.59417 34.1834 9.9705 34.2214 11.3183 34.031C14.7147 33.5549 17.3881 34.0945 20.2962 36.6148C25.8237 41.4016 32.4232 42.0523 39.1146 38.6336C42.0544 37.1386 43.4085 34.5992 43.4465 31.0853Z" fill="#ef4444"/>
<path d="M5.34995 16.1124C6.39013 11.8272 8.75907 8.91009 11.6925 6.45323C23.5404 -3.49166 41.1505 -1.74583 51.2352 10.2845L52.1866 11.4527L43.4243 16.16C41.8197 14.2015 39.7298 12.0875 36.9105 10.8622C30.0067 7.86894 22.3226 9.06562 17.6767 15.0618C17.4452 15.3633 17.0425 15.7252 16.7253 15.741C13.0181 15.8966 9.3077 15.9918 5.34995 16.1124Z" fill="#ef4444"/>
<path d="M0.241007 28.9014C0.168067 26.8636 0.041216 25.0289 0.0919565 23.1878C0.0919565 22.7625 0.726213 22.0038 1.07822 21.9848C7.82988 21.6356 14.5879 21.3753 21.5457 21.0896C21.625 23.4798 21.6979 25.7621 21.774 28.1491L0.241007 28.9014Z" fill="#ef4444"/>
<path d="M189.573 20.1818C187.93 18.3439 186.268 16.4806 184.518 14.5158C185.999 12.7668 187.372 11.1225 188.777 9.51001C189.012 9.24441 189.335 9.07212 189.687 9.02435C192.766 8.86246 195.849 8.74184 199.226 8.599L189.573 20.1818Z" fill="#ef4444"/>
<path d="M0 53.8922L199.857 45.3726L197.967 53.2891" fill="#ef4444"/>
</g>
<defs>
<clipPath id="clip0_604_1247">
<rect width="200" height="53.8922" fill="wef4444"/>
</clipPath>
</defs>
</svg>
