<?xml version="1.0" encoding="UTF-8"?>
<svg id="Capa_1" data-name="Capa 1" xmlns="http://www.w3.org/2000/svg" viewBox="0 0 288.2 417.04">
  <defs>
    <style>
      .cls-1 {
        fill: #fff;
        stroke-width: 0px;
      }
    </style>
  </defs>
  <path class="cls-1" d="m232.88,83.43h0c6.47-21.38-5.39-44.01-26.65-50.86l-27.52-8.85c-21.27-6.84-44.1,4.63-51.31,25.78h0l105.47,33.93Z"/>
  <path class="cls-1" d="m91.98,99.33l140.55,45.22c5.55,2.29,11.91-.35,14.2-5.9,2.29-5.55-.35-11.91-5.9-14.2-.53-.22-1.07-.39-1.63-.53l-140.54-45.3c-5.72-1.84-11.85,1.3-13.69,7.03-1.84,5.72,1.3,11.85,7.03,13.69h-.01Z"/>
  <path class="cls-1" d="m237.44,168.41c-1.32-.95-2.25-2.36-2.6-3.96v-.08c-.51-2.39-2.27-4.31-4.6-5.03l-149.43-48.11h0c-.57,1.11-1.35,2.1-2.29,2.91-1.21,1.1-2.79,1.71-4.43,1.72-18.78.16-33.87,15.51-33.71,34.29.08,9.25,3.93,18.07,10.65,24.43l.46.49c6.03,6.99,4.81,12.36,4.81,12.36h0l-27.68,86.08c-.39,1.21-.43,2.51-.13,3.75l17.62,71.64,15.48,62.92c.9,3.68,4.6,5.93,8.28,5.03,1.01-.25,1.95-.72,2.75-1.38l50.42-41.8,57.32-47.54c1.01-.83,1.75-1.93,2.15-3.17l27.45-85.29c.2-.67.51-1.3.92-1.86,1.19-1.64,4.12-4.59,10.43-6.1.21-.06.43-.1.64-.13,18.61-2.52,31.65-19.65,29.13-38.26-1.24-9.16-6.16-17.42-13.62-22.88v-.03Zm-48.93,5.23c9.58,3.01,14.9,13.22,11.88,22.79-3.01,9.58-13.22,14.9-22.79,11.88-9.58-3.01-14.9-13.22-11.88-22.79.02-.06.04-.12.06-.18,3.06-9.52,13.25-14.76,22.77-11.7,0,0,0,0,0,0h-.04Zm-77.79-25.03c9.57,3.04,14.86,13.26,11.82,22.83-3.04,9.57-13.26,14.86-22.83,11.82-9.57-3.04-14.86-13.26-11.82-22.83.01-.04.02-.08.04-.12,3.09-9.52,13.3-14.76,22.83-11.7h-.04Zm5.77,203.97c-7.84-17.94-28.75-26.13-46.69-18.28-1.62.71-3.19,1.54-4.69,2.48l-12.58-42.81,28.16-3.12,21.14,19,28.14-3.1,21.07,18.94-34.55,26.89Zm48.93-42.46l-11.18-11.32-7.34-7.42-9.09-9.21-9.14,1.55-13.98,2.38-5.89.99-4.19-4.19-9.55-9.66-6.91-6.99-12.25,2.08-10.79,1.8-14.55,2.47-.52-.17,25.57-79.47c6.68,4.32,13.62,8.23,20.79,11.69,5.72,2.8,11.78,5.45,18.18,7.97,5.27,2.07,10.72,4.02,16.36,5.84,5.79,1.86,11.52,3.5,17.14,4.91,6.66,1.66,13.16,3.03,19.42,4.08,7.86,1.34,15.8,2.19,23.77,2.56l-25.84,80.11Z"/>
  <path class="cls-1" d="m103.45,64.67l139.97,45.03c5.21,1.75,10.91-.58,13.41-5.48,1.99-4.07,1.25-8.93-1.85-12.23h0c.35-.94.69-1.9.99-2.8,9.9-30.76-6.99-63.72-37.75-73.64l-39.34-12.72c-30.76-9.9-63.72,7-73.64,37.75h0c-.31.96-.6,1.93-.85,2.91h0c-4.45.86-7.89,4.4-8.64,8.86-.85,5.45,2.43,10.7,7.7,12.32Zm75.22-40.95l27.52,8.85c21.28,6.84,33.15,29.47,26.69,50.86h0l-105.52-33.93h0c7.21-21.15,30.04-32.62,51.31-25.78Z"/>
  <path class="cls-1" d="m148.1,223.37l-19.41,60.34,9.14-1.55,9.12,9.21,20.57-63.92c-6.26-1.05-12.76-2.42-19.42-4.08Z"/>
  <path class="cls-1" d="m96.44,204.65l-20.47,63.63,12.25-2.08,6.91,6.99,19.48-60.55c-6.38-2.51-12.43-5.17-18.16-7.98Z"/>
  <path class="cls-1" d="m30.67,152.3l31.93,10.26c3.6,1.16,7.46-.81,8.62-4.41,0,0,0,0,0,0l1.87-5.83c1.16-3.6-.82-7.46-4.42-8.62,0,0,0,0-.01,0l-31.93-10.28c-3.6-1.15-5.59-5.01-4.44-8.61,0,0,0,0,0-.01l2.8-8.72c1.16-3.6-.82-7.46-4.42-8.62,0,0,0,0-.01,0l-5.82-1.87c-3.6-1.16-7.46.82-8.62,4.42,0,0,0,0,0,.01L.33,159.38c-1.15,3.61.83,7.46,4.43,8.63l5.82,1.87c3.61,1.16,7.48-.82,8.64-4.43,0,0,0,0,0,0l2.8-8.72c1.17-3.61,5.04-5.59,8.64-4.42,0,0,0,0,.01,0Z"/>
  <path class="cls-1" d="m251.46,223.33l-31.93-10.28c-3.6-1.15-5.59-5.01-4.44-8.61,0,0,0,0,0-.01l1.87-5.82c1.15-3.6,5.01-5.59,8.61-4.44,0,0,0,0,.01,0l31.93,10.28c3.61,1.16,7.48-.82,8.64-4.43,0,0,0,0,0,0l2.8-8.72c1.14-3.62,4.99-5.63,8.61-4.49.02,0,.03,0,.05.01l5.82,1.86c3.61,1.16,5.59,5.03,4.43,8.64,0,0,0,0,0,0l-15.84,49.44c-1.15,3.6-5,5.58-8.6,4.43-.01,0-.02,0-.03-.01l-5.82-1.86c-3.61-1.16-5.59-5.03-4.43-8.64,0,0,0,0,0,0l2.8-8.71c1.15-3.61-.84-7.47-4.45-8.63-.01,0-.03,0-.04-.01Z"/>
</svg>